<svg xmlns="http://www.w3.org/2000/svg" version="1.1" viewBox="0 0 1504 1600" width="1280" height="1280">
<path transform="translate(0)" d="m0 0h1504v1600h-1504v-1600z" fill="#0c0c0c"/>
<path transform="translate(840 146)" d="m0 0c0.842 0.121 1.68 0.243 2.55 0.368 9.91 1.44 19.6 3.25 29.2 5.82 3.06 0.786 6.09 1.41 9.21 1.93 4.48 0.765 8.78 1.86 13.2 3.1 3.39 0.935 6.8 1.76 10.2 2.59 11 2.71 21.9 5.99 32.8 9.25 0.769 0.228 1.54 0.457 2.33 0.692 10.3 3.07 20.4 6.68 30.4 10.5 1.99 0.74 3.98 1.45 5.98 2.16 10.5 3.75 20.6 8.31 30.7 12.9 5.62 2.55 11.2 5.07 17 7.42 4.58 1.89 9.06 3.91 13.5 6.15 0.669 0.337 1.34 0.674 2.03 1.02 5.74 2.92 11.3 6.08 16.9 9.31 2.75 1.59 5.53 3.11 8.33 4.6 30.4 16.5 59.7 35.9 86.9 57.2l2.41 1.86c13.4 10.3 26.4 21.2 38.9 32.7 1.42 1.29 2.84 2.58 4.3 3.81 6.85 5.81 13.1 12.2 19.5 18.6 2.02 2.03 4.05 4.05 6.07 6.07 15.1 15.1 15.1 15.1 17.9 19v2h2c1.51 1.46 1.51 1.46 3.12 3.38 0.539 0.626 1.08 1.25 1.63 1.9 1.24 1.73 1.24 1.73 1.24 3.73 0.889 0.371 0.889 0.371 1.8 0.75 2.54 1.44 3.74 2.9 5.45 5.25 0.521 0.701 1.04 1.4 1.58 2.12 1.17 1.87 1.17 1.87 1.17 3.88 0.99 0.33 1.98 0.66 3 1 2.04 2.21 2.04 2.21 4.19 4.94 0.715 0.896 1.43 1.79 2.17 2.71 1.64 2.35 1.64 2.35 1.64 4.35 0.99 0.33 1.98 0.66 3 1 0.977 1.39 1.94 2.79 2.85 4.23 1.22 1.88 2.55 3.64 3.93 5.41 0.507 0.649 1.01 1.3 1.54 1.97 0.536 0.687 1.07 1.37 1.62 2.08 7.08 9.18 13.6 18.7 20.1 28.3 0.531 0.792 1.06 1.58 1.61 2.4 9.04 13.5 17.3 27.5 25.4 41.6 0.433 0.753 0.866 1.51 1.31 2.28 8.7 15.1 17.1 30.5 24 46.5 1.6 3.72 3.28 7.35 5.13 11 2.9 5.75 5.37 11.7 7.79 17.6 0.473 1.16 0.945 2.33 1.43 3.53 5.18 12.9 9.84 26 14.4 39.1 0.303 0.864 0.606 1.73 0.917 2.62 6.57 18.8 11.4 38.1 16.1 57.4 0.172 0.699 0.345 1.4 0.522 2.12 5.82 23.7 8.73 48.1 11.7 72.3 0.131 1.05 0.261 2.09 0.396 3.17 0.38 3.05 0.751 6.11 1.12 9.17 0.11 0.886 0.22 1.77 0.334 2.68 1.7 14.4 2.06 28.8 2.07 43.3 0.00323 1.66 0.0066 3.31 0.0101 4.97 0.00593 3.45 0.00785 6.91 0.00725 10.4-8.09e-5 3.48 0.00681 6.95 0.0205 10.4 0.108 27.9-1.15 55.2-4.38 82.9-0.331 2.84-0.649 5.68-0.967 8.52-0.212 1.85-0.424 3.7-0.637 5.54-0.139 1.24-0.139 1.24-0.281 2.51-0.643 5.44-1.69 10.7-2.94 16-0.546 2.6-1.09 5.19-1.62 7.79-0.145 0.706-0.291 1.41-0.441 2.14-0.305 1.48-0.61 2.97-0.915 4.45-0.455 2.22-0.912 4.44-1.37 6.65-0.3 1.46-0.6 2.92-0.9 4.38-0.148 0.72-0.297 1.44-0.449 2.18-0.715 3.48-1.42 6.97-2.09 10.5-1.42 7.32-3.02 14.5-5.15 21.6-0.289 0.979-0.577 1.96-0.875 2.97-4.67 15.6-9.92 31-15.2 46.3-0.248 0.724-0.496 1.45-0.752 2.19-3.36 9.75-6.96 19.4-10.9 28.9-0.254 0.611-0.509 1.22-0.771 1.85-10.8 25.8-23.2 50.2-37.1 74.5-1.29 2.26-2.57 4.52-3.84 6.79-6.08 10.8-12.8 21.1-19.6 31.4-0.582 0.875-1.16 1.75-1.76 2.65-6.78 10.2-13.8 20.1-21.2 29.8-0.772 1.02-1.54 2.04-2.34 3.09-6.22 8.15-12.7 16.1-19.1 24.1-1.37 1.68-2.73 3.37-4.09 5.07-3.66 4.54-7.35 8.81-11.5 12.9-2.01 2.08-3.72 4.26-5.49 6.54-6.31 7.77-13.4 14.7-20.5 21.8-2.36 2.35-4.72 4.72-7.07 7.08-1.52 1.52-3.05 3.04-4.57 4.57-0.691 0.695-1.38 1.39-2.09 2.11-4.17 4.13-8.49 7.82-13.2 11.3-2.53 1.97-4.71 4.21-6.94 6.5-2.13 1.92-4.31 3.77-6.5 5.62-0.61 0.519-1.22 1.04-1.85 1.57-1.26 1.08-2.53 2.15-3.79 3.22-1.75 1.49-3.5 2.99-5.24 4.49-6.99 6-14.2 11.7-21.6 17.1-0.892 0.655-1.78 1.31-2.7 1.98-6.86 5.02-13.8 9.96-20.7 14.9-1.35 0.961-2.69 1.93-4.03 2.9-11.9 8.51-24.4 16.2-37.2 23.3-3 1.71-5.94 3.47-8.88 5.27-7.63 4.67-15.4 8.76-23.5 12.7-2.68 1.31-5.35 2.64-8.02 3.98-2 1.01-4.01 2.01-6.02 3.01-2.61 1.3-5.21 2.63-7.8 3.96-9.95 5.1-20.1 9.58-30.4 13.9-2.71 1.13-5.42 2.28-8.13 3.43-12.5 5.25-25.1 9.72-38 13.9-2.43 0.784-4.84 1.58-7.26 2.39-18.1 6.04-36.3 11.6-55 15.7-2.55 0.582-5.07 1.21-7.6 1.88-16.2 4.23-32.7 6.39-49.3 8.56-2.5 0.329-5.01 0.662-7.51 0.996-48.5 6.45-95.4 8.93-144 1.33-1.61-0.246-1.61-0.246-3.26-0.497-5.66-0.869-11.1-2.08-16.5-3.67-2.43-0.633-4.8-1.16-7.27-1.63-12.5-2.38-24.3-6.09-36.3-10.3-2.36-0.817-4.73-1.6-7.1-2.37-37.8-12.5-75.1-32.1-107-56.5l-2.1-1.61c-5.12-3.94-10.1-8.01-15.1-12.1-2.75-2.25-5.51-4.49-8.29-6.72l-2.41-1.93c-1.65-1.28-3.36-2.47-5.09-3.63v-2h-2v-2l-1.74-0.759c-2.56-1.41-4.28-3.02-6.34-5.09-1.15-1.15-1.15-1.15-2.33-2.33-0.793-0.806-1.59-1.61-2.4-2.44-0.782-0.782-1.56-1.56-2.37-2.37-13.2-13.3-13.2-13.3-15.8-19h-2c-1.63-1.8-1.63-1.8-3.56-4.31-2.81-3.61-5.67-7.14-8.62-10.6-5.99-7.29-11.1-15.2-16.4-23-1.6-2.35-3.28-4.65-4.97-6.94-5.81-8.27-10.5-17.3-15.4-26.1-0.443-0.791-0.886-1.58-1.34-2.4-15.6-28-27-58.6-34.7-89.6-0.254-1.01-0.508-2.02-0.769-3.06-2.99-12-5.57-24-7.48-36.2-0.151-0.963-0.302-1.93-0.458-2.92-2.55-17.3-3.62-34.5-3.55-52 0.0107-3.11 3.14e-5 -6.22-0.0127-9.33-0.0145-18.9 1.28-37.6 4.52-56.3 0.216-1.26 0.432-2.52 0.655-3.82 7.29-41.3 20.9-81.1 40.1-118 0.578-1.14 0.578-1.14 1.17-2.29 4.48-8.78 9.11-17.4 14.3-25.8l1.25-2.06c2.95-4.69 2.95-4.69 6.31-5.81l2-2-0.367 3.28c-0.577 5.24-1.11 10.5-1.63 15.7l-0.291 2.87c-1.27 12.8-1.9 25.5-1.9 38.4-0.00121 1.94-0.00121 1.94-0.00244 3.91 0.0306 5.11 0.112 9.84 1.19 14.8 0.11 1.82 0.216 3.64 0.289 5.46 2.41 59 28 122 65.7 168 0.673 0.834 1.35 1.67 2.04 2.53 13.4 16.6 27.2 32.3 44 45.5 1.21 0.977 2.42 1.96 3.63 2.94 7.3 5.91 14.7 11.7 22.4 17.1 1.34 0.947 1.34 0.947 2.71 1.91 8.74 6.01 17.9 11.1 27.3 16.1 0.966 0.518 0.966 0.518 1.95 1.05 27.8 14.8 57.3 24.8 88 31 1.13 0.23 1.13 0.23 2.29 0.464 10.5 2.09 21 3.33 31.7 4.29 2.04 0.25 2.04 0.25 4.39 0.768 3.09 0.562 6 0.611 9.15 0.614 1.27 0.00226 2.54 0.00451 3.85 0.00684 1.37-0.00404 2.73-0.00894 4.1-0.0146 0.696-0.00222 1.39-0.00443 2.11-0.00671 37.7-0.141 73.5-4.59 109-16.1 1.4-0.439 2.8-0.878 4.2-1.32 43.7-14.1 84-39.8 117-71.7 1.25-1.21 1.25-1.21 2.53-2.45 10.6-10.3 20.8-20.6 29.5-32.5 0.782-1.02 1.56-2.04 2.37-3.1 20.2-26.4 35.6-55.6 46.6-86.9 0.3-0.842 0.6-1.68 0.909-2.55 8.1-23 13.2-47.9 14.9-72.3 0.211-2.19 0.211-2.19 0.714-4.22 0.71-4.24 0.66-8.43 0.665-12.7 0.00635-1.44 0.00635-1.44 0.0128-2.9 0.00991-3.12 0.00991-6.23 0.0067-9.35-6.04e-4 -1.06-0.00121-2.12-0.00183-3.22-0.0402-26-1.71-51.2-6.19-76.8-0.225-1.32-0.449-2.64-0.673-3.96-11.1-64.9-33-126-66.3-183-0.476-0.82-0.951-1.64-1.44-2.48-6.63-11.3-13.7-22.3-21.5-32.8-1.93-2.6-3.81-5.23-5.68-7.87-9.44-13.7-9.44-13.7-20.5-26-3.14-3.18-5.86-6.7-8.66-10.2-1.86-2.29-3.76-4.51-5.72-6.72-2.44-2.94-2.44-2.94-2.44-4.94-0.58-0.254-1.16-0.508-1.76-0.77-6-3.29-10.5-9.43-14.8-14.6-1.5-1.66-3.08-3.02-4.83-4.41-0.866-0.722-1.73-1.44-2.62-2.19v-2h-2c-1.73-1.63-3.37-3.28-5-5-4.49-4.72-9.2-8.88-14.3-12.9-2.75-2.17-5.47-4.38-8.17-6.6-0.926-0.757-1.85-1.51-2.8-2.29-1.68-1.37-3.35-2.75-5.02-4.13-29.8-24.4-64-44.3-98.6-61.1-1.52-0.739-3.04-1.48-4.56-2.23-14.6-7.17-29.1-13.2-44.7-17.9-2.52-0.814-4.85-1.74-7.25-2.86-8.38-3.91-17.4-6.75-26.5-8.54-2.44-0.595-4.67-1.47-7.01-2.39-7.26-2.72-14.8-4.07-22.3-5.56-3-0.605-6-1.24-8.99-1.89-1.05-0.226-2.11-0.451-3.2-0.684-2.05-0.439-4.1-0.88-6.14-1.33-5.36-1.13-10.6-1.92-16.1-2.39-3.08-0.347-6.03-1.05-9.05-1.76-30.1-6.55-62.1-4.77-92.7-4.19-2.1 0.0384-4.21 0.0732-6.31 0.104-13.9 0.207-27.6 0.95-41.3 2.58-1.13 0.125-2.26 0.25-3.42 0.379-11.3 1.28-22.3 3.04-33.4 5.67-3.98 0.934-7.98 1.58-12 2.2-11.9 1.93-23.4 5.51-34.9 8.82-2.63 0.753-5.27 1.49-7.91 2.21-28.9 8.02-57.6 19.6-84.2 33.6-2.62 1.37-5.25 2.71-7.89 4.06-2.06 1.06-4.13 2.12-6.19 3.18-1.44 0.737-1.44 0.737-2.91 1.49-5.28 2.74-10.3 5.66-15.2 9.05-2.01 1.34-4.05 2.51-6.18 3.64-5.89 3.2-11.5 6.89-17.1 10.6-1.57 1.03-3.15 2.05-4.73 3.07-15.7 10.2-30.3 22-44.6 34.1-0.555 0.469-1.11 0.938-1.68 1.42-1.49 1.26-2.97 2.53-4.46 3.81-2.26 1.73-2.26 1.73-4.26 1.73-0.33 0.99-0.66 1.98-1 3-1.74 1.72-1.74 1.72-3.88 3.5-2.98 2.5-2.98 2.5-5.76 5.22-1.37 1.28-1.37 1.28-3.37 1.28-0.33 0.99-0.66 1.98-1 3-1.43 1.4-1.43 1.4-3.31 2.94-7.87 6.68-15.2 14.1-21.9 22-1.84 2.12-3.75 4.17-5.67 6.22-5.99 6.41-11.4 13.1-16.8 20.1-1.87 2.42-3.77 4.81-5.67 7.2-9.5 12-9.5 12-17.7 24.8-1.69 2.86-3.69 5.49-5.68 8.15-4.47 6.09-8.32 12.4-12 19l-1.17 2.08c-0.334 0.607-0.669 1.21-1.01 1.84-1.47 2.03-3.16 3.27-5.21 4.68 0.525-6.58 1.44-12.9 3-19.3 0.214-0.886 0.427-1.77 0.647-2.69 3.2-12.8 7.29-25.4 11.4-38 0.382-1.19 0.765-2.37 1.16-3.59 5.89-18.2 12.4-36 19.6-53.7 0.404-0.995 0.404-0.995 0.817-2.01 1.63-3.95 3.45-7.76 5.39-11.6 1.91-3.86 3.62-7.8 5.36-11.7 6.38-14.3 13.5-28 21.1-41.6 1.07-1.92 2.14-3.84 3.21-5.76 1.69-3.05 3.39-6.1 5.1-9.14 0.518-0.935 1.04-1.87 1.57-2.83 3.08-5.48 6.41-10.7 10.1-15.8 2.12-2.99 4.09-6.05 6.05-9.15 11.8-18.5 24.7-36.1 38.6-53.1 0.696-0.86 1.39-1.72 2.11-2.61 2.29-2.81 4.58-5.6 6.89-8.39 0.624-0.756 0.624-0.756 1.26-1.53 5.81-7.02 11.8-13.8 18.1-20.5 2.66-2.82 5.25-5.67 7.76-8.62 4.78-5.49 9.96-10.6 15.1-15.7 1.74-1.73 3.47-3.47 5.2-5.21 5.16-5.17 10.3-10.3 15.9-15 2.71-2.32 5.29-4.77 7.89-7.21 19.9-18.4 41.7-34.6 63.8-50.2l2.57-1.82c20.3-14.4 41.5-27.3 63.4-39.2 0.649-0.353 1.3-0.705 1.97-1.07 9.57-5.2 19.2-10.2 29-14.9 1.46-0.706 1.46-0.706 2.94-1.43 17.2-8.3 34.7-15.6 52.6-22.3 3.1-1.16 6.2-2.34 9.29-3.52 37.6-14.2 77.6-24.4 117-30.8 1.08-0.181 2.17-0.362 3.28-0.549 14.2-2.37 28.3-4.18 42.7-5.22 2.04-0.18 2.04-0.18 3.9-0.724 2.29-0.54 4.43-0.749 6.78-0.899 0.915-0.06 1.83-0.12 2.77-0.182 0.987-0.0605 1.97-0.121 2.99-0.183 1.03-0.0654 2.06-0.131 3.12-0.198 55.8-3.49 111-1.2 166 6.89z" fill="#ffffff"/>
<path transform="translate(566,490)" d="m0 0c0.896 0.0694 1.79 0.139 2.71 0.21 12.9 1.04 25.4 3.55 38.1 6.13 2.99 0.608 5.99 1.19 8.98 1.78 15.8 3.15 31 7.86 46.2 12.9 0.869 0.285 1.74 0.57 2.63 0.864 9.77 3.24 19.2 7.08 28.7 11.1 2.94 1.26 5.89 2.48 8.88 3.63 12.2 4.73 23.4 10.9 34.8 17.4 1.24 0.697 1.24 0.697 2.51 1.41 23 12.9 45.4 27.4 65.5 44.6 0.546 0.463 1.09 0.925 1.65 1.4 6.84 5.79 13.6 11.7 20.2 17.7 1.88 1.68 3.79 3.27 5.76 4.84 0.784 0.681 1.57 1.36 2.38 2.06v2c0.594 0.258 1.19 0.516 1.8 0.781 2.39 1.33 3.65 2.62 5.39 4.72 3.52 4.18 7.19 8.19 10.9 12.2 1.73 2.07 2.77 3.88 3.92 6.3-5.2-1.69-10.3-3.48-15.4-5.45-11.3-4.33-22.8-7.62-34.6-10.6-0.766-0.192-1.53-0.384-2.32-0.582-80.1-19.7-167-6-242 26.6-1.46 0.568-2.91 1.13-4.38 1.69-13.2 5.27-26 11.8-38.6 18.3-1.1 0.56-1.1 0.56-2.23 1.13-16.2 8.26-32.1 17.1-46.8 27.9-1.54 1.06-3.08 2.13-4.62 3.19-11.1 7.81-22 16.1-32.4 24.8-0.517 0.432-1.03 0.863-1.57 1.31-6.61 5.53-13.1 11.1-19.4 17-2.02 1.68-2.02 1.68-5.02 2.68l-0.875 1.75c-1.52 3.04-3.67 4.91-6.12 7.25-0.825 0.825-1.65 1.65-2.5 2.5-7.5 7.5-7.5 7.5-9.38 9.31-4.1 3.99-7.65 8.01-10.9 12.7-0.405 0.485-0.81 0.969-1.23 1.47h-2c-0.34 0.806-0.34 0.806-0.688 1.63-1.72 3.11-3.98 5.65-6.31 8.31-7.16 8.33-13.9 16.9-20 26.1-0.835 1.21-1.67 2.42-2.52 3.63-5.78 8.31-11.3 16.7-16.5 25.4l-1.92 3.06c-29.7 47.5-49.2 101-60.1 156l-0.483 2.41c-0.963 4.85-1.78 9.71-2.52 14.6-0.157 1.03-0.314 2.06-0.476 3.13-4.26 28.5-8.3 58.8-4.73 87.6 0.212 2.27 0.215 4.45 0.167 6.73-0.0749 7.63 0.894 15.2 1.73 22.8 0.133 1.22 0.133 1.22 0.27 2.46 7.6 68.7 28.3 140 66.6 198 1.41 2.2 2.67 4.43 3.91 6.73 7.89 14.4 18.3 27.8 28.3 40.7 1.31 1.87 2.31 3.77 3.28 5.83-3.48-1.3-6.53-2.82-9.67-4.8-0.884-0.559-1.77-1.12-2.68-1.69-0.937-0.6-1.87-1.2-2.84-1.82-0.973-0.622-1.95-1.24-2.95-1.88-9.21-5.93-18.1-12.3-26.9-18.8-0.569-0.421-1.14-0.842-1.72-1.28-3.44-2.55-6.86-5.13-10.3-7.72-1.5-1.13-1.5-1.13-3.02-2.28-11.9-9.03-23.5-18.4-34.5-28.5-2.49-2.22-5.05-4.3-7.66-6.38-5.51-4.49-10.6-9.29-15.6-14.3-0.876-0.874-1.75-1.75-2.65-2.65-1.83-1.83-3.66-3.67-5.49-5.5-2.78-2.79-5.56-5.56-8.35-8.34-1.79-1.79-3.59-3.59-5.38-5.38-0.821-0.817-1.64-1.63-2.49-2.48-5.38-5.42-10.2-11.1-14.9-17.2-2.19-2.72-4.38-5.39-6.88-7.84-2.28-2.31-4.28-4.75-6.31-7.28-3.01-3.73-6.1-7.31-9.38-10.8-4.03-4.41-7.24-9.11-10.5-14.1-1.86-2.78-3.84-5.35-5.96-7.94-3.68-4.5-6.89-9.21-10.1-14.1-1.72-2.62-3.49-5.18-5.3-7.74-7.58-10.8-14.8-21.8-21.4-33.1-0.844-1.44-1.69-2.88-2.54-4.31-5.97-10.1-11.6-20.3-16.7-30.8-0.958-1.95-1.94-3.89-2.94-5.82-21.3-41.6-33.9-87.2-39.8-133-0.105-0.822-0.211-1.64-0.319-2.49-2.1-16.6-3.08-33.1-3.06-49.8 2.72e-4 -0.847 5.44e-4 -1.69 8.24e-4 -2.57 0.133-90.5 27.9-182 81.2-256 0.612-0.856 1.22-1.71 1.86-2.59 8.56-11.9 17.6-23.3 27.1-34.4 0.508-0.592 1.02-1.18 1.54-1.79 4.12-4.76 8.41-9.3 12.9-13.7 0.681-0.682 1.36-1.36 2.06-2.07 1.43-1.43 2.86-2.86 4.29-4.29 2.17-2.17 4.34-4.34 6.5-6.51 1.4-1.4 2.8-2.8 4.2-4.2 0.637-0.639 1.27-1.28 1.93-1.94 4.37-4.35 8.92-8.45 13.6-12.5 0.938-0.808 1.88-1.62 2.84-2.45 36.8-31 79.5-57.1 124-74.5 2.21-0.858 4.41-1.74 6.61-2.63 10.4-4.19 20.9-7.67 31.7-10.7 2.18-0.624 4.35-1.27 6.53-1.92 22.1-6.52 45-11.3 67.9-13.8 0.887-0.0962 1.77-0.192 2.69-0.292 6.1-0.65 12.2-1.2 18.3-1.71 1.29-0.113 2.57-0.227 3.9-0.344 26.3-1.95 52.8-0.777 79.1 1.34z" fill="#ffffff"/>
<path transform="translate(763,697)" d="m0 0c0.807 0.134 1.61 0.268 2.45 0.407 11.1 1.87 21.9 4.27 32.6 7.93 2.06 0.69 4.13 1.33 6.2 1.97 43.9 13.6 86.3 42.7 114 79.7 0.87 1.14 1.74 2.28 2.61 3.42 39.5 52.3 55.5 116 47 181-4.86 33.3-17.6 66.4-36.6 94.2-0.562 0.824-1.12 1.65-1.7 2.5-1.74 2.52-3.52 5.01-5.3 7.5-0.709 1.01-1.42 2.03-2.15 3.07-0.714 1.01-1.43 2.02-2.16 3.05-0.656 0.931-1.31 1.86-1.99 2.82-0.841 1.02-0.841 1.02-1.7 2.05h-2c-0.249 0.566-0.498 1.13-0.754 1.71-4.71 8.63-13.9 16.7-21.2 23.3h-2c-0.33 0.99-0.66 1.98-1 3-7.81 7.53-17.2 13.6-26.1 19.7-1.52 1.05-3.03 2.11-4.53 3.18-4.78 3.32-9.75 5.95-15 8.48-2.37 1.15-4.71 2.32-7.04 3.54-18.8 9.72-38.2 16.2-58.8 20.8-0.888 0.203-1.78 0.405-2.69 0.614-15.4 3.33-30.7 4.08-46.4 4.01-0.924-0.00216-1.85-0.00431-2.8-0.00653-14.1-0.0525-27.8-0.523-41.6-3.31-1.54-0.306-1.54-0.306-3.12-0.618-30.3-6.17-59.5-16.4-85.1-34.2-1.99-1.4-1.99-1.4-5.1-3.03-8.48-4.74-23.4-13.5-27.7-22.3-0.783-2.01-0.783-2.01-2.75-2.74-2.59-1.32-4.25-2.92-6.31-4.97-1.13-1.13-1.13-1.13-2.29-2.28-0.777-0.785-1.55-1.57-2.36-2.38-1.19-1.18-1.19-1.18-2.4-2.38-0.749-0.752-1.5-1.5-2.27-2.28-0.687-0.689-1.37-1.38-2.08-2.09-1.5-1.76-1.5-1.76-1.5-3.76-0.99-0.33-1.98-0.66-3-1-1.96-2.31-3.77-4.62-5.56-7.06-0.53-0.716-1.06-1.43-1.61-2.17-4.93-6.75-9.42-13.7-13.7-20.9-1.04-1.74-2.1-3.46-3.17-5.18-14.2-23.7-22.9-50.6-27.6-77.7-0.311-1.77-0.652-3.54-0.999-5.31-6.42-32.8-3.02-71 8.43-102 0.974-2.72 1.81-5.4 2.61-8.18 1.53-5.16 3.46-10.1 5.6-15 0.386-0.894 0.772-1.79 1.17-2.71 6.07-13.8 12.8-27.4 21.8-39.5 1.08-1.6 2.16-3.2 3.23-4.8 3.8-5.65 7.92-10.8 12.6-15.8 2.26-2.49 4.32-5.07 6.38-7.73 3.01-3.82 5.99-6.71 9.81-9.69 0.743-0.743 1.48-1.49 2.25-2.25 7.38-7.38 15.2-13.8 23.8-19.8 0.812-0.585 1.62-1.17 2.46-1.77 10-7.17 20.6-13.6 31.5-19.2 0.641-0.331 1.28-0.662 1.94-1 42.3-21.6 97.1-31.2 144-23z" fill="#ffffff"/>
</svg>